<?xml version="1.0" encoding="UTF-8" standalone="no"?>
<!-- Created with Inkscape (http://www.inkscape.org/) -->

<svg
   xmlns:svg="http://www.w3.org/2000/svg"
   xmlns="http://www.w3.org/2000/svg"
   xmlns:xlink="http://www.w3.org/1999/xlink"
   version="1.1"
   width="550"
   height="550"
   id="svg2">
  <defs
     id="defs4">
    <linearGradient
       id="linearGradient3604">
      <stop
         id="stop3606"
         style="stop-color:#ffffad;stop-opacity:1"
         offset="0" />
      <stop
         id="stop3642"
         style="stop-color:#fafa32;stop-opacity:1"
         offset="0.89999998" />
      <stop
         id="stop3608"
         style="stop-color:#f2f400;stop-opacity:1"
         offset="1" />
    </linearGradient>
    <radialGradient
       cx="300.5"
       cy="263.86218"
       r="106.5"
       fx="300.5"
       fy="263.86218"
       id="radialGradient3692"
       xlink:href="#linearGradient3604"
       gradientUnits="userSpaceOnUse" />
    <radialGradient
       cx="300.5"
       cy="263.86218"
       r="106.5"
       fx="300.5"
       fy="263.86218"
       id="radialGradient3708"
       xlink:href="#linearGradient3604"
       gradientUnits="userSpaceOnUse" />
  </defs>
  <g
     transform="translate(0,-502.36218)"
     id="layer1">
    <g
       transform="matrix(2.6829268,0,0,2.6829268,-170.36584,176.75629)"
       id="g3684">
      <g
         id="g3700">
        <path
           d="m 407,263.86218 a 106.5,106.5 0 1 1 -213,0 106.5,106.5 0 1 1 213,0 z"
           transform="matrix(0.96244134,0,0,0.96244134,-123.21362,-30.089674)"
           id="path2830"
           style="fill:url(#radialGradient3708);fill-opacity:1;stroke:none" />
        <path
           d="m 99.183588,229.4237 c -7.93959,0 -12.91372,3.04173 -11.41883,5.70514 1.4949,2.66341 1.81235,0.5179 8.2868,0 0,36.74179 37.082982,62.82368 69.948442,62.28672 32.86547,0.53696 69.94844,-25.54493 69.94844,-62.28672 6.47447,0.5179 6.7919,2.66341 8.2868,0 1.4949,-2.66341 -3.47923,-5.70514 -11.41882,-5.70514 -7.93958,0 -11.98827,3.12119 -10.53794,5.70514 1.45032,2.58396 2.6889,0.64596 7.40592,0 0,30.85271 -31.0852,55.84326 -63.6844,55.84326 -32.59919,0 -63.68439,-24.99055 -63.68439,-55.84326 4.71702,0.64596 5.9556,2.58396 7.40592,0 1.45032,-2.58395 -2.59836,-5.70514 -10.537942,-5.70514 z"
           id="path3640"
           style="fill:#000000" />
        <g
           transform="translate(208.25511,0)"
           id="g3679"
           style="fill:#000000">
          <g
             transform="matrix(1.0459184,0,0,1.0459184,-299.21175,-13.417133)"
             id="g3646"
             style="fill:#000000">
            <path
               d="m 249,186.86218 a 6,19.5 0 1 1 -12,0 6,19.5 0 1 1 12,0 z"
               transform="matrix(1.055691,0,0,1.0100312,-28.8573,-0.20177664)"
               id="path3612"
               style="fill:#000000;fill-opacity:1;stroke:none" />
            <path
               d="m 249,186.86218 a 6,19.5 0 1 1 -12,0 6,19.5 0 1 1 12,0 z"
               transform="matrix(1.055691,0,0,1.0100312,7.1427004,-0.20177664)"
               id="path3614"
               style="fill:#000000;fill-opacity:1;stroke:none" />
          </g>
        </g>
      </g>
    </g>
    <path
       d="m 839.85719,292.77742 c -25.79294,-3.52241 -51.30345,-26.70904 -56.07608,-50.96782 l -1.16683,-5.9309 -3.48792,0.20603 c -2.36841,0.1399 -3.84681,-0.34683 -4.60607,-1.51645 -1.81157,-2.79067 0.65985,-4.17846 8.10525,-4.55141 10.78998,-0.54048 20.03861,3.36693 16.45397,6.95157 -0.93729,0.93729 -2.20259,0.97386 -5.27951,0.15258 l -4.04679,-1.08015 0.65968,3.12494 c 2.53537,12.01037 7.51124,20.90519 16.85224,30.12495 20.83926,20.56876 52.16501,24.29421 77.49501,9.21618 12.25229,-7.29335 23.42292,-21.77323 27.5007,-35.64768 2.41016,-8.20046 2.2337,-9.18664 -1.41616,-7.91429 -3.77023,1.31431 -5.98749,0.51903 -5.98749,-2.14758 0,-2.30788 2.68169,-3.61508 10.43873,-5.08841 6.09009,-1.15672 11.29962,-0.27564 12.58639,2.12871 1.32304,2.47212 -1.13159,4.84654 -4.37025,4.22743 -2.67562,-0.51148 -3.05342,0.14007 -4.18969,7.22564 -1.11715,6.96629 -8.93089,21.45912 -15.46823,28.69029 -16.24854,17.97306 -39.26932,26.1733 -63.99695,22.79637 z"
       id="path3644"
       style="fill:#000000" />
  </g>
</svg>
